<svg width="25" height="24" viewBox="0 0 25 24" fill="none" xmlns="http://www.w3.org/2000/svg">
<path d="M12.5028 5.76977C8.95566 5.76977 6.09453 8.48092 6.09453 11.8421C6.09453 15.2033 8.95566 17.9144 12.5028 17.9144C16.0499 17.9144 18.911 15.2033 18.911 11.8421C18.911 8.48092 16.0499 5.76977 12.5028 5.76977ZM12.5028 15.7899C10.2105 15.7899 8.33659 14.0195 8.33659 11.8421C8.33659 9.66473 10.205 7.8943 12.5028 7.8943C14.8006 7.8943 16.669 9.66473 16.669 11.8421C16.669 14.0195 14.795 15.7899 12.5028 15.7899ZM20.6679 5.52138C20.6679 6.30883 19.9986 6.93773 19.1732 6.93773C18.3422 6.93773 17.6785 6.30355 17.6785 5.52138C17.6785 4.73922 18.3477 4.10503 19.1732 4.10503C19.9986 4.10503 20.6679 4.73922 20.6679 5.52138ZM24.9122 6.95887C24.8173 5.0616 24.36 3.38101 22.8932 1.99637C21.432 0.611725 19.6584 0.178365 17.6562 0.0832369C15.5926 -0.0277456 9.40742 -0.0277456 7.34384 0.0832369C5.34718 0.17308 3.57362 0.60644 2.1068 1.99108C0.639989 3.37572 0.188232 5.05631 0.0878416 6.95359C-0.0292805 8.90899 -0.0292805 14.7699 0.0878416 16.7253C0.182655 18.6226 0.639989 20.3032 2.1068 21.6878C3.57362 23.0725 5.34161 23.5058 7.34384 23.601C9.40742 23.712 15.5926 23.712 17.6562 23.601C19.6584 23.5111 21.432 23.0778 22.8932 21.6878C24.3544 20.3032 24.8118 18.6226 24.9122 16.7253C25.0293 14.7699 25.0293 8.91428 24.9122 6.95887ZM22.2462 18.8234C21.8112 19.8593 20.969 20.6573 19.8703 21.0748C18.225 21.6931 14.321 21.5504 12.5028 21.5504C10.6846 21.5504 6.77496 21.6878 5.13525 21.0748C4.04211 20.6626 3.19994 19.8646 2.75934 18.8234C2.1068 17.2644 2.25739 13.565 2.25739 11.8421C2.25739 10.1192 2.11238 6.41453 2.75934 4.86077C3.19437 3.82494 4.03653 3.02692 5.13525 2.60941C6.78054 1.99108 10.6846 2.13377 12.5028 2.13377C14.321 2.13377 18.2306 1.99637 19.8703 2.60941C20.9635 3.02163 21.8056 3.81965 22.2462 4.86077C22.8988 6.41981 22.7482 10.1192 22.7482 11.8421C22.7482 13.565 22.8988 17.2697 22.2462 18.8234Z" fill="#D82E58"/>
</svg>
